<?xml version="1.0" standalone="no"?>
<!DOCTYPE svg PUBLIC "-//W3C//DTD SVG 20010904//EN"
 "http://www.w3.org/TR/2001/REC-SVG-20010904/DTD/svg10.dtd">
<svg version="1.0" xmlns="http://www.w3.org/2000/svg"
 width="500.000000pt" height="500.000000pt" viewBox="0 0 500.000000 500.000000"
 preserveAspectRatio="xMidYMid meet">

<g transform="translate(0.000000,500.000000) scale(0.100000,-0.100000)"
fill="#000000" stroke="none">
<path d="M2215 4385 c-684 -110 -1240 -555 -1493 -1195 -37 -93 -64 -185 -93
-315 -28 -125 -38 -461 -19 -612 45 -363 195 -701 441 -996 251 -301 622 -527
1011 -617 699 -161 1423 78 1885 622 285 336 453 785 453 1210 0 920 -630
1699 -1524 1885 -104 22 -153 26 -346 29 -163 2 -250 -1 -315 -11z m548 -31
c661 -96 1221 -538 1473 -1162 42 -105 87 -271 110 -407 24 -140 24 -455 1
-585 -99 -537 -387 -974 -837 -1270 -316 -207 -696 -312 -1085 -297 -460 17
-881 195 -1216 515 -409 389 -620 937 -578 1502 64 852 729 1571 1574 1700
157 24 408 26 558 4z"/>
<path d="M3496 3118 c-8 -13 -23 -69 -32 -125 -15 -93 -19 -103 -38 -103 -39
0 -67 -28 -64 -63 3 -28 7 -32 35 -35 29 -3 32 -6 28 -30 -23 -140 -39 -210
-51 -233 -15 -30 -42 -49 -70 -49 -22 0 -18 42 32 348 42 254 40 272 -20 272
-18 0 -39 -6 -45 -14 -6 -7 -32 -132 -56 -277 -40 -231 -49 -269 -73 -303 -35
-50 -93 -81 -153 -81 -54 0 -79 17 -79 55 0 27 2 28 39 23 55 -7 104 12 145
57 103 114 14 275 -136 246 -79 -15 -130 -71 -148 -163 -5 -29 -15 -78 -21
-108 -11 -59 -34 -81 -69 -70 -29 9 -32 36 -12 96 31 89 35 125 17 159 -13 25
-21 30 -53 30 -46 0 -76 -25 -103 -84 -20 -45 -25 -129 -9 -171 8 -21 4 -37
-20 -85 -50 -98 -53 -91 -45 96 5 138 4 172 -7 188 -18 23 -64 24 -86 2 -19
-19 -30 -119 -31 -281 -1 -113 16 -157 67 -176 63 -24 127 11 179 99 21 36 30
42 47 37 47 -15 76 -16 111 -5 30 10 39 9 53 -4 73 -65 222 -58 331 17 l34 23
38 -19 c50 -25 104 -16 168 27 42 29 51 31 67 19 24 -18 106 -17 152 3 20 8
51 29 68 45 31 30 32 30 63 14 41 -21 151 -21 208 -1 101 36 172 113 200 216
15 54 1 82 -39 78 -33 -3 -43 -15 -69 -86 -24 -67 -105 -124 -176 -124 -45 0
-83 26 -83 57 0 24 3 25 59 25 67 0 111 23 148 79 46 68 20 176 -51 209 -36
18 -117 17 -153 -1 -68 -36 -89 -77 -114 -225 -20 -120 -33 -149 -81 -185 -28
-21 -72 -18 -81 5 -5 13 3 80 23 199 l12 68 46 13 c36 10 49 20 56 40 13 36
-7 58 -50 58 -30 0 -34 3 -29 23 21 92 24 152 10 174 -21 31 -69 31 -89 1z
m392 -260 c32 -32 -1 -98 -50 -98 -24 0 -31 15 -23 50 11 51 47 74 73 48z
m-880 -160 c31 -31 -1 -88 -50 -88 -24 0 -28 4 -28 28 0 54 47 91 78 60z"/>
<path d="M2075 2888 c-50 -17 -96 -58 -116 -102 -41 -90 -17 -150 102 -257 92
-84 113 -117 105 -163 -19 -103 -170 -127 -206 -34 -23 63 -33 77 -58 83 -36
9 -73 -22 -95 -80 -30 -81 -76 -125 -150 -146 -27 -7 -48 -7 -72 1 -34 11 -45
26 -45 62 0 18 4 20 31 14 69 -13 158 35 185 101 30 71 6 151 -57 185 -51 29
-135 21 -184 -16 -49 -37 -69 -87 -91 -219 -20 -124 -43 -170 -88 -175 l-29
-4 9 59 c15 100 11 178 -9 201 -17 19 -17 21 4 56 13 23 23 60 26 99 4 53 2
67 -19 97 -45 68 -136 89 -213 50 -26 -13 -42 -17 -49 -10 -27 27 -87 4 -100
-38 -9 -30 -106 -620 -106 -646 0 -28 25 -46 64 -46 44 0 62 32 80 143 9 56
21 130 27 164 l11 61 28 -16 c24 -14 33 -14 68 -3 22 8 45 10 51 7 14 -9 14
-51 0 -117 -14 -64 0 -119 38 -148 53 -42 184 -16 232 45 20 25 20 25 47 7 21
-14 47 -18 104 -17 95 1 170 33 231 97 l42 46 29 -24 c16 -13 45 -29 66 -35
165 -45 335 73 335 234 0 80 -21 112 -166 243 -44 40 -57 58 -57 80 0 60 59
73 110 23 35 -34 69 -38 93 -12 29 32 21 71 -22 112 -51 49 -117 62 -186 38z
m-887 -296 c19 -12 25 -73 10 -102 -10 -19 -25 -27 -63 -33 -27 -5 -58 -15
-67 -24 -17 -15 -18 -15 -18 0 0 9 5 39 11 66 16 75 81 122 127 93z m450 -134
c32 -32 -4 -88 -55 -88 -18 0 -23 6 -23 28 0 54 47 91 78 60z"/>
</g>
</svg>
