<?xml version="1.0" standalone="no"?>
<!DOCTYPE svg PUBLIC "-//W3C//DTD SVG 20010904//EN"
 "http://www.w3.org/TR/2001/REC-SVG-20010904/DTD/svg10.dtd">
<svg version="1.0" xmlns="http://www.w3.org/2000/svg"
 width="1849.000000pt" height="1848.000000pt" viewBox="0 0 1849.000000 1848.000000"
 preserveAspectRatio="xMidYMid meet">

<g transform="translate(0.000000,1848.000000) scale(0.100000,-0.100000)"
fill="#000000" stroke="none">
<path d="M7175 14850 c-3501 -5 -3722 -6 -3752 -22 -44 -25 -89 -83 -102 -132
-8 -31 -1873 -8856 -2172 -10275 -59 -280 -59 -284 -45 -335 16 -54 58 -106
110 -134 28 -16 132 -17 1269 -20 862 -2 1251 1 1279 8 58 16 125 82 141 139
8 25 182 846 388 1823 l374 1778 1316 0 1316 0 345 -607 345 -608 -96 -7
c-588 -44 -1093 -436 -1279 -993 -17 -50 -87 -365 -155 -700 -113 -546 -125
-615 -116 -655 18 -79 73 -138 150 -161 54 -16 7460 -17 7699 0 639 43 1112
173 1513 417 592 361 1016 1022 1250 1949 52 206 248 1130 271 1280 68 438 33
855 -100 1212 -286 767 -1068 1305 -2219 1527 -71 14 -539 93 -1040 177 -500
83 -911 152 -912 153 -1 1 63 321 143 711 80 391 153 766 162 835 l18 125
1679 5 1680 6 97 22 c120 27 280 83 368 127 182 91 390 267 516 435 77 103
169 280 212 410 18 52 88 369 157 703 134 653 133 643 88 719 -10 18 -38 46
-62 63 l-43 30 -3536 0 c-1946 0 -5211 -2 -7257 -5z m10461 -427 c-3 -10 -46
-216 -95 -458 -50 -242 -100 -467 -111 -500 -117 -340 -398 -593 -760 -683
-59 -15 -318 -17 -2700 -22 -2901 -6 -2695 -2 -2940 -66 -375 -98 -556 -341
-684 -919 -19 -88 -40 -194 -46 -235 -21 -140 -119 -625 -145 -713 -106 -364
-227 -506 -489 -572 -179 -45 -257 -50 -826 -50 l-535 0 -27 105 c-61 233 -74
556 -34 825 20 138 219 1089 262 1255 127 491 300 881 530 1191 98 133 312
345 434 431 109 77 303 179 440 233 241 94 580 162 940 188 25 2 1563 4 3418
5 3208 2 3373 1 3368 -15z m-8306 3 c0 -2 -24 -19 -52 -37 -29 -19 -97 -69
-150 -112 -387 -307 -696 -776 -903 -1372 l-53 -150 -1374 -5 -1375 -5 -48
-30 c-34 -21 -56 -44 -71 -75 -26 -51 -584 -2595 -584 -2658 1 -84 70 -170
156 -191 57 -15 4307 -15 4509 -1 605 43 907 235 1097 697 78 191 101 292 279
1213 38 201 101 371 173 469 55 74 145 115 326 148 83 14 193 17 843 20 l747
4 0 -24 c0 -43 -28 -187 -206 -1062 -183 -897 -218 -1054 -286 -1270 -167
-536 -442 -985 -748 -1220 -134 -103 -452 -275 -649 -350 -186 -71 -423 -123
-705 -155 -131 -15 -177 -25 -209 -42 -90 -50 -131 -167 -90 -259 11 -24 496
-842 1077 -1817 581 -975 1056 -1775 1056 -1778 0 -2 -546 -4 -1212 -4 l-1213
0 -1035 1823 c-719 1266 -1046 1833 -1072 1859 -21 20 -55 42 -75 47 -26 7
-525 11 -1534 11 l-1495 0 -51 -25 c-99 -50 -61 100 -485 -1913 l-383 -1812
-986 0 c-935 0 -987 1 -983 17 7 32 2124 10055 2124 10059 0 2 1269 4 2820 4
1551 0 2820 -2 2820 -4z m-1275 -2118 c-35 -147 -209 -1009 -225 -1114 -48
-319 -34 -695 35 -966 l7 -28 -1341 0 c-738 0 -1341 2 -1341 5 0 2 102 469
226 1037 124 568 228 1045 231 1061 l6 27 1203 0 1204 0 -5 -22z m5811 -2222
c941 -159 1133 -194 1332 -250 658 -186 1137 -496 1404 -912 202 -315 278
-751 213 -1224 -22 -155 -237 -1176 -285 -1353 -209 -762 -532 -1279 -991
-1589 -103 -69 -353 -190 -484 -233 -126 -42 -306 -86 -445 -109 -273 -46
-331 -48 -1195 -53 l-831 -5 -497 835 c-273 459 -497 838 -497 841 0 3 426 6
948 6 1133 0 1271 7 1512 77 367 105 540 356 671 968 39 185 42 212 43 355 0
175 -11 234 -71 359 -91 191 -327 343 -670 431 -87 23 -1942 340 -1987 340 -4
0 29 40 73 90 323 360 571 860 722 1458 19 72 39 132 45 132 6 0 451 -74 990
-164z m-1164 -2051 c614 -101 1156 -194 1204 -206 215 -53 370 -135 416 -221
20 -38 23 -57 23 -163 0 -98 -6 -148 -34 -275 -62 -284 -118 -441 -195 -542
-69 -90 -216 -137 -491 -157 -85 -7 -566 -11 -1216 -11 l-1077 0 -417 701
c-229 385 -416 702 -414 703 2 2 67 16 144 31 278 54 512 135 765 264 77 40
144 67 155 65 11 -2 523 -87 1137 -189z m-3996 -2835 l475 -835 -1187 -3
c-653 -1 -1188 -1 -1190 0 -1 2 40 210 93 463 102 497 125 576 209 717 64 108
229 277 336 342 99 61 229 114 337 137 68 14 124 17 269 16 l184 -2 474 -835z"/>
</g>
</svg>
